<svg xmlns="http://www.w3.org/2000/svg" viewBox="0 0 240 240" width="240" height="240" role="img">
  <defs><linearGradient id="bg" x1="0" y1="0" x2="0" y2="1"><stop offset="0" stop-color="#efe7ff"/><stop offset="1" stop-color="#dcc9ff"/></linearGradient>
  <clipPath id="c"><circle cx="120" cy="120" r="120"/></clipPath></defs>
  <g clip-path="url(#c)">
    <rect width="240" height="240" fill="url(#bg)"/>
    <path d="M40 240 C40 190 74 168 120 168 C166 168 200 190 200 240 Z" fill="#6d28d9"/>
    <path d="M96 150 h48 v22 c0 10 -48 10 -48 0 Z" fill="#f1c9a8"/>
    <ellipse cx="120" cy="118" rx="40" ry="46" fill="#f1c9a8"/>
    
    <circle cx="107" cy="116" r="3.4" fill="#3b2f2a"/><circle cx="133" cy="116" r="3.4" fill="#3b2f2a"/>
    <path d="M112 132 c4 4 12 4 16 0" stroke="#b06a54" stroke-width="2.4" fill="none" stroke-linecap="round"/>
    
    <path d="M78 110 C72 66 94 48 120 48 C146 48 168 66 162 110 C158 98 148 86 120 86 C92 86 82 98 78 110 Z M76 106 C72 126 76 142 82 150 L92 142 C86 128 86 116 88 106 Z M164 106 C168 126 164 142 158 150 L148 142 C154 128 154 116 152 106 Z" fill="#3a2a1a"/>
  </g>
  <circle cx="120" cy="120" r="118" fill="none" stroke="#ffffff" stroke-width="4"/>
</svg>